<svg width="252" height="183" viewBox="0 0 252 183" fill="none" xmlns="http://www.w3.org/2000/svg">
<path d="M252 182.389C239.015 180.488 226.528 178.848 214.537 177.471L219.278 169.799C217.68 169.326 210.657 173.7 210.657 173.7L216.881 151.394C208.842 152.169 204.751 174.955 204.751 174.955L195.771 167.203L200.118 175.892C163.42 172.104 131.726 170.616 105.068 170.444L109.126 163.877C107.528 163.405 100.505 167.779 100.505 167.779L106.729 145.473C98.6896 146.247 94.599 169.034 94.599 169.034L85.6186 161.282L90.2228 170.484C67.8741 170.755 49.649 171.948 35.5818 173.339C39.6869 163.099 53.6284 153.406 53.6284 153.406C42.9821 156.008 37.397 160.424 34.4784 164.552C34.2553 151.884 35.7561 128.405 46.9066 102.456C46.9066 102.456 24.8959 142.444 27.6997 169.366L28.0349 174.146C9.37934 176.296 0 178.579 0 178.579L252 182.389Z" fill="#3F3D56"/>
<path d="M163.413 7.26167V168.848C163.411 170.773 162.645 172.618 161.283 173.979C159.922 175.34 158.076 176.104 156.151 176.105H90.5517C89.598 176.106 88.6534 175.92 87.772 175.556C86.8905 175.192 86.0896 174.658 85.415 173.983C84.7404 173.309 84.2055 172.509 83.8408 171.627C83.4762 170.746 83.289 169.802 83.29 168.848V7.26167C83.29 6.30803 83.4777 5.36371 83.8426 4.48265C84.2075 3.60159 84.7424 2.80103 85.4168 2.12671C86.0911 1.45239 86.8916 0.917497 87.7727 0.552593C88.6538 0.18769 89.5981 -8.21681e-05 90.5517 3.40691e-07H100.369V1.25889C100.368 2.8446 100.998 4.36547 102.119 5.48697C103.24 6.60847 104.761 7.23877 106.346 7.23923H139.711C140.987 7.24196 142.23 6.83281 143.256 6.07258C143.463 5.92182 143.659 5.7569 143.844 5.579C144.428 5.02135 144.892 4.35089 145.21 3.60827C145.527 2.86566 145.69 2.06637 145.689 1.25889V3.40691e-07H156.151C157.105 -0.000291829 158.049 0.187338 158.93 0.552167C159.811 0.916997 160.612 1.45188 161.286 2.12624C161.961 2.80061 162.496 3.60124 162.861 4.4824C163.225 5.36356 163.413 6.30797 163.413 7.26167V7.26167Z" fill="#3F3D56"/>
<path d="M101.565 28.6677C102.529 28.6677 103.31 27.8865 103.31 26.9227C103.31 25.959 102.529 25.1777 101.565 25.1777C100.602 25.1777 99.8203 25.959 99.8203 26.9227C99.8203 27.8865 100.602 28.6677 101.565 28.6677Z" fill="#F2F2F2"/>
<path d="M143.844 5.57898C143.659 5.75688 143.463 5.9218 143.256 6.07256C145.393 9.83348 148.288 13.1093 151.758 15.6922C155.228 18.2751 159.197 20.1088 163.413 21.077V20.2993C159.311 19.3316 155.454 17.5238 152.086 14.9902C148.717 12.4565 145.911 9.252 143.844 5.57898Z" fill="white"/>
<path d="M128.934 7.2392H128.117C131.019 14.6145 135.807 21.0989 142.001 26.0443C148.195 30.9897 155.578 34.2229 163.413 35.4209V34.6481C155.782 33.463 148.591 30.3129 142.546 25.5074C136.501 20.7019 131.81 14.4063 128.934 7.2392V7.2392Z" fill="white"/>
<path d="M113.872 7.2392H113.085C119.673 30.1086 139.554 47.1323 163.413 49.8968V49.1365C139.968 46.3844 120.429 29.6848 113.872 7.2392Z" fill="white"/>
<path d="M95.8316 39.8412H95.3774V39.387H95.2889V39.8412H94.8345V39.93H95.2889V40.3842H95.3774V39.93H95.8316V39.8412Z" fill="#F2F2F2"/>
<path d="M126.493 17.1563H126.039V16.7021H125.951V17.1563H125.496V17.245H125.951V17.6992H126.039V17.245H126.493V17.1563Z" fill="#F2F2F2"/>
<path d="M100.319 57.7897H99.8645V57.3355H99.776V57.7897H99.3215V57.8785H99.776V58.3326H99.8645V57.8785H100.319V57.7897Z" fill="#F2F2F2"/>
<path d="M121.259 44.5776H120.804V44.1234H120.716V44.5776H120.261V44.6664H120.716V45.1206H120.804V44.6664H121.259V44.5776Z" fill="#F2F2F2"/>
<path d="M151.173 52.804H150.719V52.3498H150.63V52.804H150.176V52.8927H150.63V53.3469H150.719V52.8927H151.173V52.804Z" fill="#F2F2F2"/>
<path d="M145.938 32.1577C146.489 32.1577 146.935 31.7113 146.935 31.1606C146.935 30.6099 146.489 30.1635 145.938 30.1635C145.387 30.1635 144.941 30.6099 144.941 31.1606C144.941 31.7113 145.387 32.1577 145.938 32.1577Z" fill="#FF6584"/>
<path d="M110.216 54.5435L109.65 54.6308C109.827 55.7625 109.966 56.9192 110.068 58.0634L110.639 58.0136C110.537 56.8544 110.395 55.6878 110.216 54.5435Z" fill="#E6E6E6"/>
<path d="M108.667 47.7281L108.119 47.8951C108.45 48.992 108.747 50.1162 108.999 51.2355L109.56 51.1084C109.303 49.9766 109.001 48.8399 108.667 47.7281Z" fill="#E6E6E6"/>
<path d="M106.197 41.1918L105.676 41.4311C106.155 42.4757 106.603 43.5476 107.01 44.6195L107.546 44.4176C107.134 43.3332 106.683 42.2463 106.197 41.1918Z" fill="#E6E6E6"/>
<path d="M102.856 35.0644L102.373 35.371C102.989 36.3382 103.579 37.3404 104.128 38.345L104.631 38.0708C104.078 37.0537 103.48 36.0416 102.856 35.0644Z" fill="#E6E6E6"/>
<path d="M98.7036 29.4481L98.2673 29.8195C99.0102 30.692 99.7331 31.6044 100.416 32.5267L100.875 32.1852C100.187 31.2529 99.4564 30.3305 98.7036 29.4481Z" fill="#E6E6E6"/>
<path d="M93.8226 24.4474L93.4412 24.8737C94.2987 25.639 95.1388 26.4442 95.939 27.2643L96.3503 26.863C95.5401 26.0328 94.6901 25.2202 93.8226 24.4474Z" fill="#E6E6E6"/>
<path d="M88.3084 20.1547L87.9868 20.6283C88.9391 21.269 89.8814 21.952 90.7863 22.6575L91.1403 22.2063C90.2229 21.4933 89.2706 20.8028 88.3084 20.1547Z" fill="#E6E6E6"/>
<path d="M83.29 17.1732V17.8214C83.8858 18.133 84.4766 18.4595 85.055 18.7936L85.3417 18.2975C84.6686 17.9086 83.9847 17.5338 83.29 17.1732Z" fill="#E6E6E6"/>
<path d="M110.086 108.39C110.179 107.832 110.264 107.263 110.339 106.698L110.907 106.774C110.831 107.345 110.745 107.92 110.651 108.484L110.086 108.39Z" fill="#E6E6E6"/>
<path d="M108.488 115.115L109.036 115.286C109.38 114.178 109.691 113.043 109.96 111.913L109.402 111.781C109.135 112.899 108.829 114.02 108.488 115.115Z" fill="#E6E6E6"/>
<path d="M105.985 121.555L106.505 121.799C107 120.75 107.463 119.669 107.882 118.587L107.347 118.378C106.933 119.448 106.475 120.517 105.985 121.555Z" fill="#E6E6E6"/>
<path d="M102.617 127.596L103.097 127.908C103.731 126.936 104.34 125.928 104.906 124.914L104.406 124.634C103.847 125.636 103.244 126.632 102.617 127.596Z" fill="#E6E6E6"/>
<path d="M98.4497 133.115L98.8841 133.491C99.6468 132.611 100.386 131.697 101.087 130.771L100.628 130.428C99.9369 131.343 99.205 132.246 98.4497 133.115Z" fill="#E6E6E6"/>
<path d="M93.5698 138.012L93.9473 138.443C94.8238 137.678 95.681 136.871 96.5001 136.052L96.0946 135.646C95.2849 136.457 94.4351 137.253 93.5698 138.012Z" fill="#E6E6E6"/>
<path d="M88.0723 142.197L88.3889 142.677C89.3568 142.038 90.318 141.357 91.2402 140.655L90.8937 140.197C89.9803 140.893 89.0308 141.567 88.0723 142.197Z" fill="#E6E6E6"/>
<path d="M85.4065 144.498C84.7135 144.889 84.0055 145.268 83.29 145.627V144.984C83.9083 144.67 84.5215 144.338 85.1223 144.002L85.4065 144.498Z" fill="#E6E6E6"/>
<path d="M110.254 61.5997L110.827 61.5893C110.838 62.1679 110.838 62.7496 110.83 63.3184L110.257 63.3094C110.265 62.7471 110.265 62.1719 110.254 61.5997Z" fill="#E6E6E6"/>
<path d="M85.8079 75.1923H144.442C148.806 75.1923 152.991 76.9257 156.076 80.0112C159.162 83.0967 160.895 87.2815 160.895 91.645V93.8229H102.261C97.8971 93.8229 93.7123 92.0895 90.6268 89.004C87.5413 85.9185 85.8079 81.7337 85.8079 77.3701V75.1923V75.1923Z" fill="white"/>
<path d="M124.721 175.876C124.664 175.782 123.315 173.53 122.847 168.853C122.419 164.562 122.694 157.329 126.445 147.24C133.551 128.128 124.808 112.706 124.718 112.553L125.15 112.302C125.172 112.341 127.429 116.273 128.761 122.534C130.523 130.834 129.881 139.465 126.913 147.414C119.819 166.494 125.093 175.527 125.147 175.616L124.721 175.876Z" fill="#F2F2F2"/>
<path d="M121.943 111.43C123.732 111.43 125.183 109.979 125.183 108.19C125.183 106.4 123.732 104.949 121.943 104.949C120.153 104.949 118.702 106.4 118.702 108.19C118.702 109.979 120.153 111.43 121.943 111.43Z" fill="white"/>
<path d="M132.163 123.396C133.953 123.396 135.404 121.945 135.404 120.155C135.404 118.366 133.953 116.915 132.163 116.915C130.374 116.915 128.923 118.366 128.923 120.155C128.923 121.945 130.374 123.396 132.163 123.396Z" fill="#F2F2F2"/>
<path d="M125.183 131.373C126.973 131.373 128.424 129.922 128.424 128.132C128.424 126.343 126.973 124.892 125.183 124.892C123.394 124.892 121.943 126.343 121.943 128.132C121.943 129.922 123.394 131.373 125.183 131.373Z" fill="white"/>
<path d="M133.659 138.104C135.449 138.104 136.9 136.653 136.9 134.863C136.9 133.073 135.449 131.622 133.659 131.622C131.869 131.622 130.418 133.073 130.418 134.863C130.418 136.653 131.869 138.104 133.659 138.104Z" fill="white"/>
<path d="M122.69 148.574C124.48 148.574 125.931 147.123 125.931 145.333C125.931 143.543 124.48 142.092 122.69 142.092C120.901 142.092 119.45 143.543 119.45 145.333C119.45 147.123 120.901 148.574 122.69 148.574Z" fill="#F2F2F2"/>
<path d="M126.679 175.995C126.679 175.995 123.438 168.018 133.16 162.035L126.679 175.995Z" fill="#F2F2F2"/>
<path d="M122.693 175.85C122.693 175.85 121.218 167.367 109.803 167.44L122.693 175.85Z" fill="#F2F2F2"/>
<path opacity="0.2" d="M109.792 104.45C120.806 104.45 129.734 95.5217 129.734 84.5075C129.734 73.4935 120.806 64.5648 109.792 64.5648C98.7776 64.5648 89.8489 73.4935 89.8489 84.5075C89.8489 95.5217 98.7776 104.45 109.792 104.45Z" fill="white"/>
<path opacity="0.2" d="M109.792 98.5518C117.548 98.5518 123.836 92.264 123.836 84.5075C123.836 76.7511 117.548 70.4633 109.792 70.4633C102.035 70.4633 95.7476 76.7511 95.7476 84.5075C95.7476 92.264 102.035 98.5518 109.792 98.5518Z" fill="white"/>
<path d="M109.792 93.7767C114.911 93.7767 119.061 89.6268 119.061 84.5075C119.061 79.3883 114.911 75.2383 109.792 75.2383C104.672 75.2383 100.522 79.3883 100.522 84.5075C100.522 89.6268 104.672 93.7767 109.792 93.7767Z" fill="white"/>
<path d="M111.477 82.5083C111.477 82.2239 111.405 81.9441 111.268 81.6949C111.131 81.4458 110.933 81.2354 110.692 81.0834C110.452 80.9314 110.177 80.8427 109.893 80.8256C109.609 80.8084 109.326 80.8634 109.069 80.9855C108.812 81.1075 108.59 81.2925 108.424 81.5234C108.258 81.7542 108.153 82.0234 108.119 82.3057C108.085 82.5881 108.122 82.8745 108.229 83.1383C108.335 83.4021 108.507 83.6346 108.727 83.8143L108.106 88.159H111.477L110.856 83.8143C111.05 83.6565 111.207 83.4573 111.314 83.2314C111.422 83.0055 111.477 82.7584 111.477 82.5083V82.5083Z" fill="white"/>
<path d="M180.167 166.266C180.167 166.266 178.095 163.675 176.713 164.539C175.332 165.402 173.087 171.274 173.087 171.274C173.087 171.274 165.315 178.7 170.841 179.046C176.368 179.391 178.786 177.491 179.477 176.11C180.167 174.728 186.557 171.101 186.557 171.101C186.557 171.101 185.867 164.539 184.83 164.366C183.794 164.193 182.24 166.957 182.24 166.957L180.167 166.266Z" fill="#2F2E41"/>
<path d="M195.883 167.475L197.162 167.197C197.162 167.197 198.128 165.057 199.337 165.575C200.188 165.967 200.994 166.45 201.741 167.015L202.273 167.993C202.273 167.993 203.482 170.583 205.036 172.31C206.591 174.037 208.318 177.837 205.727 178.182C203.137 178.528 199.683 178.7 198.646 177.837C197.61 176.973 198.301 175.592 197.265 175.246C196.229 174.901 195.365 173.865 195.538 173.519C195.71 173.174 195.883 167.475 195.883 167.475Z" fill="#2F2E41"/>
<path d="M139.975 35.4239C141.29 36.4032 142.917 36.869 144.552 36.7342C146.186 36.5993 147.715 35.8731 148.852 34.6916C149.989 33.51 150.656 31.9543 150.729 30.316C150.801 28.6778 150.273 27.0694 149.244 25.7924C148.215 24.5154 146.756 23.6575 145.14 23.3795C143.524 23.1014 141.862 23.4224 140.465 24.2821C139.069 25.1418 138.034 26.4813 137.555 28.0495C137.075 29.6177 137.184 31.3069 137.861 32.8006L120.235 47.4765L117.888 44.6911L116.833 45.3963L115.66 44.0036L116.624 43.1912L115.451 41.7985L113.951 43.0622L114.673 43.9193L113.066 45.2733L112.344 44.4162L109.987 46.4021L111.07 47.6876L111.927 46.9655L113.101 48.3582L112.029 49.2609L114.196 51.832L111.625 53.9984L114.242 57.1052L139.975 35.4239ZM144.375 25.5792C145.254 25.6542 146.09 25.9881 146.779 26.5385C147.468 27.089 147.978 27.8312 148.244 28.6715C148.511 29.5118 148.523 30.4124 148.278 31.2593C148.033 32.1062 147.542 32.8614 146.868 33.4295C146.194 33.9976 145.366 34.3529 144.49 34.4507C143.614 34.5485 142.729 34.3842 141.946 33.9787C141.163 33.5732 140.518 32.9447 140.092 32.1726C139.667 31.4005 139.479 30.5196 139.555 29.6411C139.655 28.4632 140.22 27.3735 141.124 26.6117C142.028 25.85 143.197 25.4785 144.375 25.5792V25.5792Z" fill="white"/>
</svg>
